<mxfile host="Electron" modified="2024-07-08T20:24:53.316Z" agent="Mozilla/5.0 (Windows NT 10.0; Win64; x64) AppleWebKit/537.36 (KHTML, like Gecko) draw.io/24.5.3 Chrome/124.0.6367.207 Electron/30.0.6 Safari/537.36" etag="FTM8tE3CBOI1nQL8SWaC" version="24.5.3" type="device">
  <diagram name="Page-1" id="j2-y5iguBYCK004hVtVf">
    <mxGraphModel dx="724" dy="428" grid="1" gridSize="10" guides="1" tooltips="1" connect="1" arrows="1" fold="1" page="1" pageScale="1" pageWidth="900" pageHeight="1600" math="0" shadow="0">
      <root>
        <mxCell id="0" />
        <mxCell id="1" parent="0" />
        <mxCell id="bxX3EOq_vNm8IzIFYqe4-47" style="edgeStyle=orthogonalEdgeStyle;rounded=0;orthogonalLoop=1;jettySize=auto;html=1;" parent="1" source="bxX3EOq_vNm8IzIFYqe4-1" target="bxX3EOq_vNm8IzIFYqe4-48" edge="1">
          <mxGeometry relative="1" as="geometry">
            <mxPoint x="140" y="75" as="targetPoint" />
          </mxGeometry>
        </mxCell>
        <mxCell id="bxX3EOq_vNm8IzIFYqe4-1" value="Shift Register" style="rounded=0;whiteSpace=wrap;html=1;fillColor=#e1d5e7;strokeColor=#9673a6;" parent="1" vertex="1">
          <mxGeometry x="240" y="40" width="310" height="60" as="geometry" />
        </mxCell>
        <mxCell id="bxX3EOq_vNm8IzIFYqe4-2" value="FÄ°FO" style="rounded=0;whiteSpace=wrap;html=1;fillColor=#e1d5e7;strokeColor=#9673a6;" parent="1" vertex="1">
          <mxGeometry x="350" y="315" width="180" height="120" as="geometry" />
        </mxCell>
        <mxCell id="bxX3EOq_vNm8IzIFYqe4-7" value="" style="edgeStyle=orthogonalEdgeStyle;rounded=0;orthogonalLoop=1;jettySize=auto;html=1;" parent="1" source="bxX3EOq_vNm8IzIFYqe4-5" target="bxX3EOq_vNm8IzIFYqe4-6" edge="1">
          <mxGeometry relative="1" as="geometry" />
        </mxCell>
        <mxCell id="bxX3EOq_vNm8IzIFYqe4-11" style="edgeStyle=orthogonalEdgeStyle;rounded=0;orthogonalLoop=1;jettySize=auto;html=1;entryX=0.5;entryY=1;entryDx=0;entryDy=0;" parent="1" source="bxX3EOq_vNm8IzIFYqe4-6" target="bxX3EOq_vNm8IzIFYqe4-5" edge="1">
          <mxGeometry relative="1" as="geometry" />
        </mxCell>
        <mxCell id="bxX3EOq_vNm8IzIFYqe4-12" style="edgeStyle=orthogonalEdgeStyle;rounded=0;orthogonalLoop=1;jettySize=auto;html=1;entryX=0;entryY=0.25;entryDx=0;entryDy=0;entryPerimeter=0;" parent="1" source="bxX3EOq_vNm8IzIFYqe4-6" target="bxX3EOq_vNm8IzIFYqe4-31" edge="1">
          <mxGeometry relative="1" as="geometry">
            <Array as="points">
              <mxPoint x="225" y="198" />
            </Array>
          </mxGeometry>
        </mxCell>
        <mxCell id="bxX3EOq_vNm8IzIFYqe4-28" value="baud equal" style="edgeLabel;html=1;align=center;verticalAlign=middle;resizable=0;points=[];" parent="bxX3EOq_vNm8IzIFYqe4-12" vertex="1" connectable="0">
          <mxGeometry x="-0.2874" y="4" relative="1" as="geometry">
            <mxPoint as="offset" />
          </mxGeometry>
        </mxCell>
        <mxCell id="bxX3EOq_vNm8IzIFYqe4-6" value="=" style="ellipse;whiteSpace=wrap;html=1;aspect=fixed;fillColor=#ffe6cc;strokeColor=#d79b00;" parent="1" vertex="1">
          <mxGeometry x="200" y="230" width="50" height="50" as="geometry" />
        </mxCell>
        <mxCell id="bxX3EOq_vNm8IzIFYqe4-10" value="" style="group;fillColor=#e1d5e7;strokeColor=#9673a6;" parent="1" vertex="1" connectable="0">
          <mxGeometry x="160" y="330" width="130" height="90" as="geometry" />
        </mxCell>
        <mxCell id="bxX3EOq_vNm8IzIFYqe4-5" value="BAUD counter" style="rounded=0;whiteSpace=wrap;html=1;fillColor=#e1d5e7;strokeColor=#9673a6;" parent="bxX3EOq_vNm8IzIFYqe4-10" vertex="1">
          <mxGeometry width="130" height="90" as="geometry" />
        </mxCell>
        <mxCell id="bxX3EOq_vNm8IzIFYqe4-8" value="reset" style="text;html=1;align=center;verticalAlign=middle;whiteSpace=wrap;rounded=0;" parent="bxX3EOq_vNm8IzIFYqe4-10" vertex="1">
          <mxGeometry x="35" y="60" width="60" height="30" as="geometry" />
        </mxCell>
        <mxCell id="bxX3EOq_vNm8IzIFYqe4-13" value="enable" style="text;html=1;align=center;verticalAlign=middle;whiteSpace=wrap;rounded=0;" parent="1" vertex="1">
          <mxGeometry x="500" y="60" width="50" height="30" as="geometry" />
        </mxCell>
        <mxCell id="bxX3EOq_vNm8IzIFYqe4-18" value="" style="edgeStyle=orthogonalEdgeStyle;rounded=0;orthogonalLoop=1;jettySize=auto;html=1;" parent="1" source="bxX3EOq_vNm8IzIFYqe4-14" target="bxX3EOq_vNm8IzIFYqe4-15" edge="1">
          <mxGeometry relative="1" as="geometry" />
        </mxCell>
        <mxCell id="bxX3EOq_vNm8IzIFYqe4-14" value="packet counter" style="rounded=0;whiteSpace=wrap;html=1;fillColor=#e1d5e7;strokeColor=#9673a6;" parent="1" vertex="1">
          <mxGeometry x="600" y="330" width="130" height="90" as="geometry" />
        </mxCell>
        <mxCell id="bxX3EOq_vNm8IzIFYqe4-15" value="!=" style="ellipse;whiteSpace=wrap;html=1;aspect=fixed;fillColor=#ffe6cc;strokeColor=#d79b00;" parent="1" vertex="1">
          <mxGeometry x="640" y="240" width="50" height="50" as="geometry" />
        </mxCell>
        <mxCell id="bxX3EOq_vNm8IzIFYqe4-17" value="" style="edgeStyle=orthogonalEdgeStyle;rounded=0;orthogonalLoop=1;jettySize=auto;html=1;" parent="1" source="bxX3EOq_vNm8IzIFYqe4-16" target="bxX3EOq_vNm8IzIFYqe4-15" edge="1">
          <mxGeometry relative="1" as="geometry" />
        </mxCell>
        <mxCell id="bxX3EOq_vNm8IzIFYqe4-16" value="10" style="text;html=1;align=center;verticalAlign=middle;whiteSpace=wrap;rounded=0;" parent="1" vertex="1">
          <mxGeometry x="650" y="180" width="30" height="30" as="geometry" />
        </mxCell>
        <mxCell id="bxX3EOq_vNm8IzIFYqe4-20" value="enable" style="text;html=1;align=center;verticalAlign=middle;whiteSpace=wrap;rounded=0;" parent="1" vertex="1">
          <mxGeometry x="670" y="390" width="50" height="30" as="geometry" />
        </mxCell>
        <mxCell id="bxX3EOq_vNm8IzIFYqe4-24" style="edgeStyle=orthogonalEdgeStyle;rounded=0;orthogonalLoop=1;jettySize=auto;html=1;entryX=0.5;entryY=1;entryDx=0;entryDy=0;" parent="1" source="bxX3EOq_vNm8IzIFYqe4-21" target="bxX3EOq_vNm8IzIFYqe4-20" edge="1">
          <mxGeometry relative="1" as="geometry" />
        </mxCell>
        <mxCell id="bxX3EOq_vNm8IzIFYqe4-21" value="" style="shape=or;whiteSpace=wrap;html=1;rotation=-90;fillColor=#f8cecc;strokeColor=#b85450;" parent="1" vertex="1">
          <mxGeometry x="675" y="430" width="40" height="70" as="geometry" />
        </mxCell>
        <mxCell id="bxX3EOq_vNm8IzIFYqe4-23" style="edgeStyle=orthogonalEdgeStyle;rounded=0;orthogonalLoop=1;jettySize=auto;html=1;exitX=0;exitY=0.5;exitDx=0;exitDy=0;exitPerimeter=0;" parent="1" source="bxX3EOq_vNm8IzIFYqe4-21" target="bxX3EOq_vNm8IzIFYqe4-21" edge="1">
          <mxGeometry relative="1" as="geometry" />
        </mxCell>
        <mxCell id="bxX3EOq_vNm8IzIFYqe4-29" value="baud equal" style="text;html=1;align=center;verticalAlign=middle;whiteSpace=wrap;rounded=0;" parent="1" vertex="1">
          <mxGeometry x="638" y="520" width="80" height="20" as="geometry" />
        </mxCell>
        <mxCell id="bxX3EOq_vNm8IzIFYqe4-30" style="edgeStyle=orthogonalEdgeStyle;rounded=0;orthogonalLoop=1;jettySize=auto;html=1;entryX=0;entryY=0.25;entryDx=0;entryDy=0;entryPerimeter=0;" parent="1" source="bxX3EOq_vNm8IzIFYqe4-29" target="bxX3EOq_vNm8IzIFYqe4-21" edge="1">
          <mxGeometry relative="1" as="geometry">
            <Array as="points">
              <mxPoint x="680" y="520" />
              <mxPoint x="680" y="520" />
            </Array>
          </mxGeometry>
        </mxCell>
        <mxCell id="bxX3EOq_vNm8IzIFYqe4-35" style="edgeStyle=orthogonalEdgeStyle;rounded=0;orthogonalLoop=1;jettySize=auto;html=1;entryX=0;entryY=0.75;entryDx=0;entryDy=0;" parent="1" source="bxX3EOq_vNm8IzIFYqe4-31" target="bxX3EOq_vNm8IzIFYqe4-14" edge="1">
          <mxGeometry relative="1" as="geometry">
            <Array as="points">
              <mxPoint x="570" y="215" />
              <mxPoint x="570" y="398" />
            </Array>
          </mxGeometry>
        </mxCell>
        <mxCell id="D-6qFupiVTFM1eunDyf1-7" style="edgeStyle=orthogonalEdgeStyle;rounded=0;orthogonalLoop=1;jettySize=auto;html=1;entryX=1;entryY=0.5;entryDx=0;entryDy=0;" edge="1" parent="1" source="bxX3EOq_vNm8IzIFYqe4-31" target="bxX3EOq_vNm8IzIFYqe4-13">
          <mxGeometry relative="1" as="geometry">
            <Array as="points">
              <mxPoint x="570" y="215" />
              <mxPoint x="570" y="75" />
            </Array>
          </mxGeometry>
        </mxCell>
        <mxCell id="bxX3EOq_vNm8IzIFYqe4-31" value="" style="shape=or;whiteSpace=wrap;html=1;rotation=0;fillColor=#f8cecc;strokeColor=#b85450;" parent="1" vertex="1">
          <mxGeometry x="480" y="180" width="40" height="70" as="geometry" />
        </mxCell>
        <mxCell id="bxX3EOq_vNm8IzIFYqe4-32" style="edgeStyle=orthogonalEdgeStyle;rounded=0;orthogonalLoop=1;jettySize=auto;html=1;entryX=0;entryY=0.75;entryDx=0;entryDy=0;entryPerimeter=0;" parent="1" source="bxX3EOq_vNm8IzIFYqe4-2" target="bxX3EOq_vNm8IzIFYqe4-31" edge="1">
          <mxGeometry relative="1" as="geometry" />
        </mxCell>
        <mxCell id="bxX3EOq_vNm8IzIFYqe4-33" value="valid" style="text;html=1;align=center;verticalAlign=middle;whiteSpace=wrap;rounded=0;" parent="1" vertex="1">
          <mxGeometry x="415" y="315" width="50" height="30" as="geometry" />
        </mxCell>
        <mxCell id="bxX3EOq_vNm8IzIFYqe4-36" value="reset" style="text;html=1;align=center;verticalAlign=middle;whiteSpace=wrap;rounded=0;" parent="1" vertex="1">
          <mxGeometry x="600" y="380" width="50" height="30" as="geometry" />
        </mxCell>
        <mxCell id="bxX3EOq_vNm8IzIFYqe4-37" style="edgeStyle=orthogonalEdgeStyle;rounded=0;orthogonalLoop=1;jettySize=auto;html=1;entryX=0;entryY=0.75;entryDx=0;entryDy=0;entryPerimeter=0;" parent="1" source="bxX3EOq_vNm8IzIFYqe4-15" target="bxX3EOq_vNm8IzIFYqe4-21" edge="1">
          <mxGeometry relative="1" as="geometry">
            <Array as="points">
              <mxPoint x="760" y="265" />
              <mxPoint x="760" y="505" />
              <mxPoint x="713" y="505" />
            </Array>
          </mxGeometry>
        </mxCell>
        <mxCell id="bxX3EOq_vNm8IzIFYqe4-41" style="edgeStyle=orthogonalEdgeStyle;rounded=0;orthogonalLoop=1;jettySize=auto;html=1;entryX=0.5;entryY=1;entryDx=0;entryDy=0;" parent="1" source="bxX3EOq_vNm8IzIFYqe4-39" target="bxX3EOq_vNm8IzIFYqe4-2" edge="1">
          <mxGeometry relative="1" as="geometry" />
        </mxCell>
        <mxCell id="bxX3EOq_vNm8IzIFYqe4-39" value="" style="shape=or;whiteSpace=wrap;html=1;rotation=-90;fillColor=#f8cecc;strokeColor=#b85450;" parent="1" vertex="1">
          <mxGeometry x="420" y="440" width="40" height="70" as="geometry" />
        </mxCell>
        <mxCell id="bxX3EOq_vNm8IzIFYqe4-42" style="edgeStyle=orthogonalEdgeStyle;rounded=0;orthogonalLoop=1;jettySize=auto;html=1;entryX=0.5;entryY=1;entryDx=0;entryDy=0;" parent="1" source="bxX3EOq_vNm8IzIFYqe4-15" target="bxX3EOq_vNm8IzIFYqe4-43" edge="1">
          <mxGeometry relative="1" as="geometry">
            <mxPoint x="458" y="530" as="targetPoint" />
            <Array as="points">
              <mxPoint x="760" y="265" />
              <mxPoint x="760" y="560" />
              <mxPoint x="458" y="560" />
            </Array>
          </mxGeometry>
        </mxCell>
        <mxCell id="bxX3EOq_vNm8IzIFYqe4-43" value="" style="ellipse;whiteSpace=wrap;html=1;aspect=fixed;fillColor=#f8cecc;strokeColor=#b85450;" parent="1" vertex="1">
          <mxGeometry x="448" y="495" width="20" height="20" as="geometry" />
        </mxCell>
        <mxCell id="bxX3EOq_vNm8IzIFYqe4-44" value="tx enable" style="text;html=1;align=center;verticalAlign=middle;whiteSpace=wrap;rounded=0;" parent="1" vertex="1">
          <mxGeometry x="392" y="540" width="60" height="30" as="geometry" />
        </mxCell>
        <mxCell id="bxX3EOq_vNm8IzIFYqe4-45" style="edgeStyle=orthogonalEdgeStyle;rounded=0;orthogonalLoop=1;jettySize=auto;html=1;entryX=0;entryY=0.25;entryDx=0;entryDy=0;entryPerimeter=0;" parent="1" source="bxX3EOq_vNm8IzIFYqe4-44" target="bxX3EOq_vNm8IzIFYqe4-39" edge="1">
          <mxGeometry relative="1" as="geometry" />
        </mxCell>
        <mxCell id="bxX3EOq_vNm8IzIFYqe4-46" value="pop" style="text;html=1;align=center;verticalAlign=middle;whiteSpace=wrap;rounded=0;" parent="1" vertex="1">
          <mxGeometry x="415" y="410" width="50" height="25" as="geometry" />
        </mxCell>
        <mxCell id="bxX3EOq_vNm8IzIFYqe4-48" value="TX" style="text;html=1;align=center;verticalAlign=middle;whiteSpace=wrap;rounded=0;" parent="1" vertex="1">
          <mxGeometry x="140" y="55" width="30" height="30" as="geometry" />
        </mxCell>
        <mxCell id="D-6qFupiVTFM1eunDyf1-3" value="" style="group" vertex="1" connectable="0" parent="1">
          <mxGeometry x="300" y="120" width="205" height="60" as="geometry" />
        </mxCell>
        <mxCell id="A6-Sd9GrZFyKtpLDSa6w-1" value="Concatenate" style="ellipse;whiteSpace=wrap;html=1;fillColor=#ffe6cc;strokeColor=#d79b00;" parent="D-6qFupiVTFM1eunDyf1-3" vertex="1">
          <mxGeometry x="50" width="90" height="60" as="geometry" />
        </mxCell>
        <mxCell id="A6-Sd9GrZFyKtpLDSa6w-3" value="" style="edgeStyle=orthogonalEdgeStyle;rounded=0;orthogonalLoop=1;jettySize=auto;html=1;" parent="D-6qFupiVTFM1eunDyf1-3" source="A6-Sd9GrZFyKtpLDSa6w-2" target="A6-Sd9GrZFyKtpLDSa6w-1" edge="1">
          <mxGeometry relative="1" as="geometry" />
        </mxCell>
        <mxCell id="A6-Sd9GrZFyKtpLDSa6w-2" value="0" style="text;html=1;align=center;verticalAlign=middle;whiteSpace=wrap;rounded=0;" parent="D-6qFupiVTFM1eunDyf1-3" vertex="1">
          <mxGeometry y="15" width="20" height="30" as="geometry" />
        </mxCell>
        <mxCell id="A6-Sd9GrZFyKtpLDSa6w-5" value="" style="edgeStyle=orthogonalEdgeStyle;rounded=0;orthogonalLoop=1;jettySize=auto;html=1;" parent="D-6qFupiVTFM1eunDyf1-3" source="A6-Sd9GrZFyKtpLDSa6w-4" target="A6-Sd9GrZFyKtpLDSa6w-1" edge="1">
          <mxGeometry relative="1" as="geometry" />
        </mxCell>
        <mxCell id="A6-Sd9GrZFyKtpLDSa6w-4" value="1" style="text;html=1;align=center;verticalAlign=middle;whiteSpace=wrap;rounded=0;" parent="D-6qFupiVTFM1eunDyf1-3" vertex="1">
          <mxGeometry x="185" y="15" width="20" height="30" as="geometry" />
        </mxCell>
        <mxCell id="D-6qFupiVTFM1eunDyf1-4" value="" style="edgeStyle=orthogonalEdgeStyle;rounded=0;orthogonalLoop=1;jettySize=auto;html=1;" edge="1" parent="1" source="A6-Sd9GrZFyKtpLDSa6w-1" target="bxX3EOq_vNm8IzIFYqe4-1">
          <mxGeometry relative="1" as="geometry" />
        </mxCell>
        <mxCell id="D-6qFupiVTFM1eunDyf1-6" value="data" style="text;html=1;align=center;verticalAlign=middle;whiteSpace=wrap;rounded=0;" vertex="1" parent="1">
          <mxGeometry x="370" y="80" width="50" height="20" as="geometry" />
        </mxCell>
      </root>
    </mxGraphModel>
  </diagram>
</mxfile>
